<svg width="30" height="30" viewBox="0 0 30 30" fill="none" xmlns="http://www.w3.org/2000/svg">
<path d="M15 25L21.6667 18.3333L19.3333 16L16.6667 18.6667V11.6667H13.3333V18.6667L10.6667 16L8.33333 18.3333L15 25ZM3.33333 8.33334V26.6667H26.6667V8.33334H3.33333ZM3.33333 30C2.41667 30 1.63222 29.6739 0.98 29.0217C0.327778 28.3694 0.00111111 27.5844 0 26.6667V5.87501C0 5.48612 0.0627776 5.11112 0.188333 4.75001C0.313889 4.3889 0.501111 4.05556 0.75 3.75001L2.83333 1.20834C3.13889 0.819453 3.52055 0.520564 3.97833 0.311675C4.43611 0.102787 4.91555 -0.00110229 5.41666 8.81833e-06H24.5833C25.0833 8.81833e-06 25.5628 0.104453 26.0217 0.313342C26.4805 0.522231 26.8622 0.820564 27.1667 1.20834L29.25 3.75001C29.5 4.05556 29.6878 4.3889 29.8133 4.75001C29.9389 5.11112 30.0011 5.48612 30 5.87501V26.6667C30 27.5833 29.6739 28.3683 29.0217 29.0217C28.3694 29.675 27.5844 30.0011 26.6667 30H3.33333ZM4 5.00001H26L24.5833 3.33334H5.41666L4 5.00001Z" fill="white" fill-opacity="0.6"/>
</svg>
