<svg width="32" height="32" viewBox="0 0 32 32" fill="none" xmlns="http://www.w3.org/2000/svg">
<g clip-path="url(#clip0_842_4058)">
<path d="M16.4385 7.78148C16.4949 6.24698 16.9266 4.89948 17.7214 3.77336C18.5209 2.64105 19.843 1.83667 21.6518 1.38086L21.6896 1.54792V1.83942C21.6896 2.50011 21.5294 3.25842 21.2132 4.09167C20.8811 4.8988 20.3627 5.65917 19.6745 6.34461C19.031 6.94892 18.435 7.34836 17.9084 7.52917C17.7351 7.58142 17.4965 7.6323 17.2085 7.67836C16.9527 7.71823 16.6961 7.75261 16.4385 7.78148Z" fill="#0C2C40"/>
<path d="M16.7404 10.0571C14.6971 10.0571 13.2781 8.24902 11.2617 8.24902C9.24596 8.24902 5.09277 10.1025 5.09277 16.499C5.09277 22.8969 8.78121 27.0178 9.19371 27.499C9.60621 27.981 10.5598 29.2178 12.0379 29.2178C13.516 29.2178 15.1337 28.0428 16.7404 28.0428C18.3471 28.0428 20.3697 29.2185 21.6904 29.2185C23.0104 29.2185 23.5535 28.6801 24.4514 27.7513C25.3493 26.8225 27.0639 23.9907 27.662 22.2898C26.6768 21.7027 24.0636 20.1105 24.0636 16.4997C24.0636 14.093 24.9432 12.0935 26.7023 10.5013C25.5482 9.00023 24.2099 8.24971 22.6873 8.24971C20.4027 8.24971 18.7843 10.0571 16.7404 10.0571Z" fill="#0C2C40" stroke="#0C2C40" stroke-width="2" stroke-linejoin="round"/>
</g>
<defs>
<clipPath id="clip0_842_4058">
<rect width="32" height="32" fill="white"/>
</clipPath>
</defs>
</svg>
