<svg width="16" height="16" viewBox="0 0 16 16" fill="none" xmlns="http://www.w3.org/2000/svg">
<path d="M11.1752 10.681L12.0641 9.69022C12.203 9.53541 12.4447 9.64377 12.4447 9.8667V14.3685C12.4447 15.189 11.8475 15.8547 11.1114 15.8547H1.33336C0.597235 15.8547 0 15.189 0 14.3685V3.47002C0 2.64954 0.597235 1.98387 1.33336 1.98387H8.93075C9.12797 1.98387 9.22798 2.25014 9.08909 2.40804L8.20018 3.39881C8.15851 3.44526 8.10295 3.47002 8.04184 3.47002H1.33336V14.3685H11.1114V10.8544C11.1114 10.7894 11.1336 10.7274 11.1752 10.681ZM15.5253 4.43293L8.23073 12.5635L5.71957 12.8731C4.99177 12.9629 4.37232 12.2786 4.45287 11.4612L4.73066 8.66229L12.0253 0.531766C12.6614 -0.177255 13.6892 -0.177255 14.3225 0.531766L15.5226 1.86931C16.1587 2.57833 16.1587 3.72701 15.5253 4.43293ZM12.7808 5.38965L11.1669 3.59078L6.00569 9.34654L5.8029 11.3683L7.61683 11.1423L12.7808 5.38965ZM14.5809 2.922L13.3808 1.58446C13.267 1.45752 13.0808 1.45752 12.9697 1.58446L12.1114 2.54118L13.7253 4.34005L14.5836 3.38333C14.6948 3.25329 14.6948 3.04895 14.5809 2.922Z" fill="white"/>
</svg>
