<svg width="36" height="35" viewBox="0 0 36 35" fill="none" xmlns="http://www.w3.org/2000/svg">
<path d="M12.2193 6.26079C12.4927 5.98728 12.8636 5.83358 13.2503 5.8335H22.0003C22.3871 5.83358 22.7579 5.98728 23.0314 6.26079L25.5207 8.75016H29.292C30.0655 8.75016 30.8074 9.05745 31.3544 9.60443C31.9014 10.1514 32.2087 10.8933 32.2087 11.6668V26.2502C32.2087 27.0237 31.9014 27.7656 31.3544 28.3126C30.8074 28.8595 30.0655 29.1668 29.292 29.1668H5.95866C5.18511 29.1668 4.44324 28.8595 3.89626 28.3126C3.34928 27.7656 3.04199 27.0237 3.04199 26.2502V11.6668C3.04199 10.8933 3.34928 10.1514 3.89626 9.60443C4.44324 9.05745 5.18511 8.75016 5.95866 8.75016H9.72991L12.2193 6.26079ZM13.8541 8.75016L11.3647 11.2395C11.0913 11.513 10.7204 11.6667 10.3337 11.6668H5.95866V26.2502H29.292V11.6668H24.917C24.5302 11.6667 24.1594 11.513 23.8859 11.2395L21.3966 8.75016H13.8541ZM17.6253 15.3127C16.8518 15.3127 16.1099 15.62 15.5629 16.1669C15.0159 16.7139 14.7087 17.4558 14.7087 18.2293C14.7087 19.0029 15.0159 19.7447 15.5629 20.2917C16.1099 20.8387 16.8518 21.146 17.6253 21.146C18.3989 21.146 19.1407 20.8387 19.6877 20.2917C20.2347 19.7447 20.542 19.0029 20.542 18.2293C20.542 17.4558 20.2347 16.7139 19.6877 16.1669C19.1407 15.62 18.3989 15.3127 17.6253 15.3127ZM11.792 18.2293C11.792 16.6822 12.4066 15.1985 13.5005 14.1045C14.5945 13.0106 16.0782 12.396 17.6253 12.396C19.1724 12.396 20.6562 13.0106 21.7501 14.1045C22.8441 15.1985 23.4587 16.6822 23.4587 18.2293C23.4587 19.7764 22.8441 21.2602 21.7501 22.3541C20.6562 23.4481 19.1724 24.0627 17.6253 24.0627C16.0782 24.0627 14.5945 23.4481 13.5005 22.3541C12.4066 21.2602 11.792 19.7764 11.792 18.2293Z" fill="white"/>
</svg>
