<svg width="315" height="53" viewBox="0 0 315 53" fill="none" xmlns="http://www.w3.org/2000/svg">
<path d="M39.35 35.95C40.0967 35.81 40.8433 35.81 41.59 35.95V48.55C39.3033 49.67 36.9467 50.5333 34.52 51.14C32.0933 51.7467 29.4333 52.05 26.54 52.05C21.08 52.05 16.39 50.9767 12.47 48.83C8.55 46.6833 5.54 43.6967 3.44 39.87C1.34 36.0433 0.29 31.5867 0.29 26.5C0.29 21.4133 1.36333 16.9567 3.51 13.13C5.65667 9.30333 8.69 6.31666 12.61 4.17C16.53 2.02333 21.1733 0.949998 26.54 0.949998C28.9667 0.949998 31.3933 1.20666 33.82 1.72C36.2467 2.18667 38.6033 2.98 40.89 4.1V17.05C40.1433 17.19 39.3967 17.19 38.65 17.05C37.7633 12.4767 36.3633 9.14 34.45 7.04C32.5833 4.94 29.7133 3.89 25.84 3.89C23.32 3.89 21.1733 4.45 19.4 5.57C17.6733 6.64333 16.2733 8.16 15.2 10.12C14.1267 12.08 13.3567 14.3667 12.89 16.98C12.4233 19.5467 12.19 22.3467 12.19 25.38C12.19 28.2267 12.4233 31.0733 12.89 33.92C13.3567 36.72 14.1267 39.2633 15.2 41.55C16.32 43.8367 17.8133 45.68 19.68 47.08C21.5933 48.4333 23.9967 49.11 26.89 49.11C29.0833 49.11 31.02 48.6667 32.7 47.78C34.4267 46.8467 35.85 45.4 36.97 43.44C38.09 41.48 38.8833 38.9833 39.35 35.95ZM44.3517 51.14C44.1651 50.2533 44.1651 49.39 44.3517 48.55H48.3417C49.4151 46.45 50.3717 44.42 51.2117 42.46C52.0517 40.4533 52.8684 38.4 53.6617 36.3L61.9917 14.67C62.4584 13.4567 62.9951 12.08 63.6017 10.54C64.2084 8.95333 64.7684 7.29666 65.2817 5.57C65.7951 3.84333 66.1684 2.18666 66.4017 0.599998C66.8684 0.506663 67.4984 0.459996 68.2917 0.459996C69.1317 0.41333 69.9484 0.41333 70.7417 0.459996C71.5817 0.459996 72.2351 0.506663 72.7017 0.599998L65.2817 14.25L56.9517 36.3C56.1584 38.4467 55.5051 40.5 54.9917 42.46C54.4784 44.42 54.1517 46.45 54.0117 48.55H60.3817C60.5684 49.39 60.5684 50.2533 60.3817 51.14C58.4684 51.0467 56.6251 51 54.8517 51C53.1251 51 51.8651 51 51.0717 51C50.2317 51 49.2984 51 48.2717 51C47.2917 51 45.9851 51.0467 44.3517 51.14ZM90.4117 48.55H93.3517C93.5384 49.39 93.5384 50.2533 93.3517 51.14C92.2784 51.0933 91.3217 51.0467 90.4817 51C89.6417 51 88.7084 51 87.6817 51C86.7017 51 85.3717 51 83.6917 51C81.4051 51 79.3984 51 77.6717 51C75.9451 51 74.2884 51.0467 72.7017 51.14C72.5151 50.2533 72.5151 49.39 72.7017 48.55H77.6017C77.1817 46.45 76.5984 44.42 75.8517 42.46C75.1517 40.5 74.4051 38.4467 73.6117 36.3L65.2817 14.25L72.7017 0.599998C73.0751 2.98 73.6351 5.24333 74.3817 7.39C75.1284 9.53667 76.0151 11.9867 77.0417 14.74L85.0217 36.3C85.8151 38.4 86.6551 40.4767 87.5417 42.53C88.4284 44.5833 89.3851 46.59 90.4117 48.55ZM75.0817 34.9H56.5317V32.1H75.0817V34.9ZM98.0718 2H135.732C135.918 2.60666 136.035 3.19 136.082 3.75C136.128 4.31 136.128 4.89333 136.082 5.5L123.272 4.8H110.812C107.545 4.8 105.025 5.61667 103.252 7.25C101.478 8.88333 100.498 11.8 100.312 16C99.5651 16.14 98.8185 16.14 98.0718 16V2ZM136.222 51H95.9718C95.7851 50.3933 95.6685 49.81 95.6218 49.25C95.5751 48.69 95.5751 48.1067 95.6218 47.5L108.572 48.2H123.482C125.908 48.2 127.868 47.71 129.362 46.73C130.855 45.75 131.975 44.4667 132.722 42.88C133.468 41.2933 133.888 39.5667 133.982 37.7C134.728 37.56 135.475 37.56 136.222 37.7V51ZM123.272 4.8L136.082 5.5C134.495 6.43333 133.118 7.81 131.952 9.63C130.832 11.45 129.828 13.1067 128.942 14.6L112.422 43.44C111.815 44.4667 111.232 45.3767 110.672 46.17C110.158 46.9167 109.458 47.5933 108.572 48.2L95.6218 47.5C96.5551 47.08 97.4651 46.3567 98.3518 45.33C99.2851 44.2567 100.148 43.09 100.942 41.83C101.782 40.5233 102.482 39.38 103.042 38.4L119.282 10.12C119.888 9.09333 120.518 8.11333 121.172 7.18C121.872 6.2 122.572 5.40667 123.272 4.8ZM142.539 51.14C142.353 50.2533 142.353 49.39 142.539 48.55H147.229C147.463 46.6367 147.626 44.6533 147.719 42.6C147.859 40.5 147.929 38.4 147.929 36.3V16.7C147.929 14.6 147.859 12.5233 147.719 10.47C147.626 8.37 147.463 6.36333 147.229 4.45H142.539C142.353 3.56333 142.353 2.7 142.539 1.86C144.173 1.90666 145.946 1.95333 147.859 2C149.819 2 151.593 2 153.179 2C154.813 2 156.586 2 158.499 2C160.459 1.95333 162.233 1.90666 163.819 1.86C164.006 2.7 164.006 3.56333 163.819 4.45H159.129C158.896 6.36333 158.709 8.37 158.569 10.47C158.476 12.5233 158.429 14.6 158.429 16.7V36.3C158.429 38.4 158.476 40.5 158.569 42.6C158.709 44.6533 158.896 46.6367 159.129 48.55H163.819C164.006 49.39 164.006 50.2533 163.819 51.14C162.233 51.0467 160.459 51 158.499 51C156.586 51 154.813 51 153.179 51C151.593 51 149.819 51 147.859 51C145.946 51 144.173 51.0467 142.539 51.14ZM169.815 51.14C169.628 50.2533 169.628 49.39 169.815 48.55H174.505C174.738 46.6367 174.901 44.6533 174.995 42.6C175.135 40.5 175.205 38.4 175.205 36.3V16.7C175.205 14.6 175.135 12.5233 174.995 10.47C174.901 8.37 174.738 6.36333 174.505 4.45H169.815C169.628 3.56333 169.628 2.7 169.815 1.86C171.448 1.90666 173.221 1.95333 175.135 2C177.095 2 178.868 2 180.455 2H191.445C194.851 2 197.955 2.46666 200.755 3.4C203.555 4.33333 205.795 5.82666 207.475 7.88C209.155 9.88666 209.995 12.5233 209.995 15.79C209.995 19.1033 209.131 21.88 207.405 24.12C205.678 26.3133 203.391 27.97 200.545 29.09C197.745 30.1633 194.711 30.7 191.445 30.7H180.945V27.9H190.045C192.331 27.9 194.291 27.0133 195.925 25.24C197.605 23.42 198.445 20.41 198.445 16.21C198.445 12.15 197.628 9.23333 195.995 7.46C194.361 5.68666 192.145 4.8 189.345 4.8H186.405C186.171 6.9 185.985 8.88333 185.845 10.75C185.751 12.6167 185.705 14.6 185.705 16.7V36.3C185.705 38.4 185.751 40.5 185.845 42.6C185.985 44.6533 186.171 46.6367 186.405 48.55H193.195C193.381 49.39 193.381 50.2533 193.195 51.14C190.535 51.0467 188.155 51 186.055 51C183.955 51 182.088 51 180.455 51C178.868 51 177.095 51 175.135 51C173.221 51 171.448 51.0467 169.815 51.14ZM260.447 48.55C260.587 49.3433 260.587 50.16 260.447 51C259 51.2333 257.787 51.3967 256.807 51.49C255.873 51.63 254.94 51.7 254.007 51.7C251.533 51.7 249.62 51.3967 248.267 50.79C246.96 50.1833 245.98 49.2733 245.327 48.06C244.72 46.8467 244.253 45.33 243.927 43.51L242.247 34.34C241.92 32.4733 241.173 31.05 240.007 30.07C238.887 29.09 237.183 28.6 234.897 28.6H225.447V25.8H234.897C237.183 25.8 239.143 24.96 240.777 23.28C242.457 21.5533 243.297 18.8933 243.297 15.3C243.297 11.7067 242.48 9.07 240.847 7.39C239.213 5.66333 236.997 4.8 234.197 4.8H230.907C230.673 6.9 230.487 8.88333 230.347 10.75C230.253 12.6167 230.207 14.6 230.207 16.7V36.3C230.207 38.4 230.253 40.5 230.347 42.6C230.487 44.6533 230.673 46.6367 230.907 48.55H235.597C235.783 49.39 235.783 50.2533 235.597 51.14C234.01 51.0467 232.237 51 230.277 51C228.363 51 226.59 51 224.957 51C223.37 51 221.597 51 219.637 51C217.723 51 215.95 51.0467 214.317 51.14C214.13 50.2533 214.13 49.39 214.317 48.55H219.007C219.24 46.6367 219.403 44.6533 219.497 42.6C219.637 40.5 219.707 38.4 219.707 36.3V16.7C219.707 14.6 219.637 12.5233 219.497 10.47C219.403 8.37 219.24 6.36333 219.007 4.45H214.317C214.13 3.56333 214.13 2.7 214.317 1.86C215.95 1.90666 217.723 1.95333 219.637 2C221.597 2 223.37 2 224.957 2H236.297C239.703 2 242.807 2.42 245.607 3.26C248.407 4.05333 250.647 5.36 252.327 7.18C254.007 9 254.847 11.4267 254.847 14.46C254.847 17.0733 254.24 19.1967 253.027 20.83C251.813 22.4633 250.273 23.7233 248.407 24.61C246.587 25.45 244.743 26.1033 242.877 26.57C245.957 26.7567 248.313 27.5033 249.947 28.81C251.627 30.07 252.7 31.9133 253.167 34.34L254.917 43.51C255.29 45.47 255.873 46.7767 256.667 47.43C257.46 48.0367 258.72 48.41 260.447 48.55ZM275.854 25.1C275.854 28.04 276.087 30.9333 276.554 33.78C277.067 36.6267 277.86 39.2167 278.934 41.55C280.007 43.8367 281.43 45.68 283.204 47.08C285.024 48.4333 287.24 49.11 289.854 49.11L289.154 52.05C283.927 52.05 279.424 50.9767 275.644 48.83C271.864 46.6833 268.97 43.6967 266.964 39.87C264.957 36.0433 263.954 31.5867 263.954 26.5C263.954 21.4133 264.98 16.9567 267.034 13.13C269.087 9.30333 272.004 6.31666 275.784 4.17C279.564 2.02333 284.02 0.949998 289.154 0.949998L288.454 3.89C285.327 3.89 282.83 4.84666 280.964 6.76C279.144 8.62667 277.837 11.17 277.044 14.39C276.25 17.61 275.854 21.18 275.854 25.1ZM302.454 27.9C302.454 24.96 302.197 22.0667 301.684 19.22C301.217 16.3733 300.447 13.8067 299.374 11.52C298.3 9.18667 296.854 7.34333 295.034 5.99C293.26 4.59 291.067 3.89 288.454 3.89L289.154 0.949998C294.427 0.949998 298.93 2.02333 302.664 4.17C306.444 6.31666 309.337 9.30333 311.344 13.13C313.35 16.9567 314.354 21.4133 314.354 26.5C314.354 31.5867 313.327 36.0433 311.274 39.87C309.22 43.6967 306.304 46.6833 302.524 48.83C298.744 50.9767 294.287 52.05 289.154 52.05L289.854 49.11C293.027 49.11 295.524 48.1533 297.344 46.24C299.164 44.3267 300.47 41.7833 301.264 38.61C302.057 35.39 302.454 31.82 302.454 27.9Z" fill="#FDFBF7"/>
</svg>
