<svg width="31" height="31" viewBox="0 0 31 31" fill="none" xmlns="http://www.w3.org/2000/svg">
<path d="M15.4997 0.0834961C7.02051 0.0834961 0.0830078 7.021 0.0830078 15.5002C0.0830078 23.9793 7.02051 30.9168 15.4997 30.9168C23.9788 30.9168 30.9163 23.9793 30.9163 15.5002C30.9163 7.021 23.9788 0.0834961 15.4997 0.0834961ZM15.4997 27.8335C8.70092 27.8335 3.16634 22.2989 3.16634 15.5002C3.16634 8.70141 8.70092 3.16683 15.4997 3.16683C22.2984 3.16683 27.833 8.70141 27.833 15.5002C27.833 22.2989 22.2984 27.8335 15.4997 27.8335ZM22.5759 8.686L12.4163 18.8456L8.42342 14.8681L6.24967 17.0418L12.4163 23.2085L24.7497 10.8752L22.5759 8.686Z" fill="#0C1B40"/>
</svg>
