<svg width="36" height="35" viewBox="0 0 36 35" fill="none" xmlns="http://www.w3.org/2000/svg">
<path d="M29.3757 7.2915C29.7624 7.2915 30.1334 7.44515 30.4069 7.71864C30.6803 7.99213 30.834 8.36306 30.834 8.74984C30.834 9.13661 30.6803 9.50754 30.4069 9.78103C30.1334 10.0545 29.7624 10.2082 29.3757 10.2082H27.9173L27.9129 10.3117L26.5523 29.3736C26.4999 30.1094 26.1707 30.7981 25.6308 31.3009C25.091 31.8037 24.3807 32.0832 23.6429 32.0832H11.7736C11.0359 32.0832 10.3255 31.8037 9.78569 31.3009C9.24584 30.7981 8.91657 30.1094 8.86419 29.3736L7.50357 10.3132L7.50065 10.2082H6.04232C5.65554 10.2082 5.28461 10.0545 5.01112 9.78103C4.73763 9.50754 4.58398 9.13661 4.58398 8.74984C4.58398 8.36306 4.73763 7.99213 5.01112 7.71864C5.28461 7.44515 5.65554 7.2915 6.04232 7.2915H29.3757ZM24.9963 10.2082H10.4217L11.775 29.1665H23.6429L24.9963 10.2082ZM20.6257 2.9165C21.0124 2.9165 21.3834 3.07015 21.6568 3.34364C21.9303 3.61713 22.084 3.98806 22.084 4.37484C22.084 4.76161 21.9303 5.13254 21.6568 5.40603C21.3834 5.67953 21.0124 5.83317 20.6257 5.83317H14.7923C14.4055 5.83317 14.0346 5.67953 13.7611 5.40603C13.4876 5.13254 13.334 4.76161 13.334 4.37484C13.334 3.98806 13.4876 3.61713 13.7611 3.34364C14.0346 3.07015 14.4055 2.9165 14.7923 2.9165H20.6257Z" fill="white"/>
</svg>
