<svg width="29" height="29" viewBox="0 0 29 29" fill="none" xmlns="http://www.w3.org/2000/svg">
<path d="M26.0625 0.625H2.9375C2.32419 0.625 1.73599 0.868638 1.30232 1.30232C0.868638 1.73599 0.625 2.32419 0.625 2.9375V26.0625C0.625 26.6758 0.868638 27.264 1.30232 27.6977C1.73599 28.1314 2.32419 28.375 2.9375 28.375H26.0625C26.6758 28.375 27.264 28.1314 27.6977 27.6977C28.1314 27.264 28.375 26.6758 28.375 26.0625V2.9375C28.375 2.32419 28.1314 1.73599 27.6977 1.30232C27.264 0.868638 26.6758 0.625 26.0625 0.625ZM22.5938 15.6562H15.6562V22.5938C15.6562 22.9004 15.5344 23.1945 15.3176 23.4113C15.1008 23.6282 14.8067 23.75 14.5 23.75C14.1933 23.75 13.8992 23.6282 13.6824 23.4113C13.4656 23.1945 13.3438 22.9004 13.3438 22.5938V15.6562H6.40625C6.09959 15.6562 5.8055 15.5344 5.58866 15.3176C5.37182 15.1008 5.25 14.8067 5.25 14.5C5.25 14.1933 5.37182 13.8992 5.58866 13.6824C5.8055 13.4656 6.09959 13.3438 6.40625 13.3438H13.3438V6.40625C13.3438 6.09959 13.4656 5.8055 13.6824 5.58866C13.8992 5.37182 14.1933 5.25 14.5 5.25C14.8067 5.25 15.1008 5.37182 15.3176 5.58866C15.5344 5.8055 15.6562 6.09959 15.6562 6.40625V13.3438H22.5938C22.9004 13.3438 23.1945 13.4656 23.4113 13.6824C23.6282 13.8992 23.75 14.1933 23.75 14.5C23.75 14.8067 23.6282 15.1008 23.4113 15.3176C23.1945 15.5344 22.9004 15.6562 22.5938 15.6562Z" fill="#0C2C40"/>
</svg>
