<svg width="42" height="41" viewBox="0 0 42 41" fill="none" xmlns="http://www.w3.org/2000/svg">
<path d="M14.8246 14.806C13.3143 14.806 11.8658 14.206 10.7978 13.138C9.72986 12.07 9.12988 10.6216 9.12988 9.11123C9.12988 7.6009 9.72986 6.15242 10.7978 5.08445C11.8658 4.01648 13.3143 3.4165 14.8246 3.4165H20.5185V14.806M14.8246 14.806H20.5185M14.8246 14.806C13.3145 14.806 11.8662 15.4059 10.7984 16.4737C9.73063 17.5415 9.13074 18.9897 9.13074 20.4998C9.13074 22.0099 9.73063 23.4582 10.7984 24.526C11.8662 25.5938 13.3145 26.1937 14.8246 26.1937H20.5185V14.806" stroke="black" stroke-width="2.5625"/>
<path d="M31.9081 20.4999C31.9081 22.0102 31.3081 23.4587 30.2401 24.5267C29.1722 25.5947 27.7237 26.1946 26.2133 26.1946C24.703 26.1946 23.2545 25.5947 22.1866 24.5267C21.1186 23.4587 20.5186 22.0102 20.5186 20.4999C20.5186 18.9896 21.1186 17.5411 22.1866 16.4731C23.2545 15.4052 24.703 14.8052 26.2133 14.8052C27.7237 14.8052 29.1722 15.4052 30.2401 16.4731C31.3081 17.5411 31.9081 18.9896 31.9081 20.4999ZM14.8247 26.1955H20.5186V31.8894C20.5183 33.0154 20.184 34.1161 19.5582 35.0522C18.9323 35.9884 18.043 36.7179 17.0025 37.1486C15.9621 37.5793 14.8173 37.6918 13.7129 37.4719C12.6085 37.252 11.5941 36.7096 10.798 35.9132C10.0018 35.1169 9.4597 34.1023 9.24014 32.9978C9.02058 31.8934 9.13344 30.7486 9.56445 29.7083C9.99545 28.668 10.7253 27.7788 11.6616 27.1533C12.5979 26.5277 13.6987 26.1955 14.8247 26.1955Z" stroke="black" stroke-width="2.5625"/>
<path d="M20.5186 3.4165H26.2124C27.7228 3.4165 29.1712 4.01648 30.2392 5.08445C31.3072 6.15242 31.9072 7.6009 31.9072 9.11123C31.9072 10.6216 31.3072 12.07 30.2392 13.138C29.1712 14.206 27.7228 14.806 26.2124 14.806H20.5186V3.4165Z" stroke="black" stroke-width="2.5625"/>
</svg>
