<svg width="34" height="34" viewBox="0 0 34 34" fill="none" xmlns="http://www.w3.org/2000/svg">
<path d="M5.57087 27.858C4.8048 27.858 4.14923 27.5854 3.60416 27.0404C3.05908 26.4953 2.78608 25.8393 2.78516 25.0723V8.35798C2.78516 7.59191 3.05816 6.93634 3.60416 6.39127C4.15016 5.84619 4.80573 5.57319 5.57087 5.57227H27.8566C28.6227 5.57227 29.2787 5.84527 29.8247 6.39127C30.3707 6.93727 30.6432 7.59284 30.6423 8.35798V25.0723C30.6423 25.8383 30.3698 26.4944 29.8247 27.0404C29.2796 27.5864 28.6236 27.8589 27.8566 27.858H5.57087ZM16.7137 17.8642C16.8298 17.8642 16.9519 17.8466 17.08 17.8113C17.2082 17.776 17.3298 17.724 17.445 17.6553L27.2994 11.4919C27.4852 11.3758 27.6244 11.231 27.7173 11.0573C27.8102 10.8837 27.8566 10.6919 27.8566 10.4821C27.8566 10.0178 27.6593 9.66959 27.2646 9.43744C26.87 9.2053 26.4637 9.21691 26.0459 9.47227L16.7137 15.3223L7.38158 9.47227C6.96373 9.21691 6.55748 9.21134 6.16283 9.45555C5.76819 9.69977 5.57087 10.0419 5.57087 10.4821C5.57087 10.7142 5.6173 10.9176 5.71016 11.0922C5.80301 11.2667 5.9423 11.4 6.12801 11.4919L15.9825 17.6553C16.0985 17.7249 16.2207 17.7774 16.3488 17.8127C16.4769 17.848 16.5986 17.8652 16.7137 17.8642Z" fill="black"/>
</svg>
