<svg width="22" height="24" viewBox="0 0 22 24" fill="none" xmlns="http://www.w3.org/2000/svg">
<path d="M7.45775 14.5502C8.60214 14.3143 9.78124 14.3146 10.9236 14.548V15.7264C10.0245 15.5132 9.0914 15.468 8.17162 15.5956C6.98715 15.7599 5.8594 16.2061 4.88309 16.8966C3.90677 17.5871 3.11039 18.5018 2.56082 19.5638C2.09961 20.4551 1.82354 21.4284 1.74682 22.4251H0.593876C0.668136 21.3068 0.959809 20.2118 1.45453 19.2021C2.03374 18.02 2.87591 16.9861 3.91648 16.1797C4.95706 15.3734 6.16843 14.816 7.45775 14.5502Z" stroke="#0C2C40" stroke-width="1.14985"/>
<circle cx="11.4983" cy="5.74925" r="4.5994" stroke="#0C2C40" stroke-width="2.2997"/>
<path d="M11.498 19.7774L14.7176 22.997L21.1568 16.0979" stroke="#0C2C40" stroke-width="1.37982" stroke-linecap="round" stroke-linejoin="round"/>
</svg>
