<svg width="29" height="34" viewBox="0 0 29 34" fill="none" xmlns="http://www.w3.org/2000/svg">
<path d="M3.27051 1.88842C3.11423 1.8902 2.95938 1.91943 2.81263 1.97483V1.41667C2.81263 0.636083 3.43001 0 4.18763 0H24.3548C25.1124 0 25.7298 0.636083 25.7298 1.41667V1.88842H3.27051ZM27.1048 5.19492H1.89551C1.13788 5.19492 0.520508 5.831 0.520508 6.61158V32.5833C0.520508 33.3639 1.13788 34 1.89551 34H11.933L13.4428 26.0029H10.3628C10.2926 26.0029 3.27051 25.6615 3.27051 25.6615L9.64913 25.1982L9.54188 24.6797L6.82213 24.276L9.40988 24.0522L9.23938 23.4161L5.01126 22.7545C5.01126 22.7545 9.60513 22.2261 9.67526 22.2261H14.1193L14.4589 20.3405C14.8563 18.0512 15.7583 16.3639 17.1718 15.1087C18.5921 13.8451 20.3948 13.2218 22.5851 13.2218C23.4693 13.2218 24.033 13.4357 24.2778 13.8777C24.44 14.1412 24.5541 14.6087 24.6614 15.0946C24.7631 15.5932 24.8539 16.0452 24.792 16.3738C24.7136 16.8626 24.1581 17.0326 23.1461 17.0326H22.7983C20.9736 17.0326 19.864 18.1135 19.4914 20.3051L19.1573 22.2247H21.2748C22.064 22.2247 22.3486 22.7942 22.13 24.0748C21.8963 25.4079 21.3889 26.0015 20.6024 26.0015H18.4876L16.9806 34H27.1034C27.861 34 28.4784 33.3639 28.4784 32.5833V6.61158C28.4784 6.2361 28.3337 5.87599 28.0761 5.61035C27.8186 5.34471 27.4692 5.19529 27.1048 5.19492ZM26.1876 3.30508C26.1873 3.18008 26.1389 3.06031 26.0531 2.97192C25.9673 2.88353 25.8511 2.83371 25.7298 2.83333H3.27051C3.14918 2.83371 3.03293 2.88353 2.94714 2.97192C2.86135 3.06031 2.813 3.18008 2.81263 3.30508V4.25H26.1876V3.30508Z" fill="#FFF42C"/>
</svg>
