<svg width="40" height="40" viewBox="0 0 40 40" fill="none" xmlns="http://www.w3.org/2000/svg">
<path d="M26.25 21.6667C26.25 21.3352 26.1183 21.0173 25.8839 20.7829C25.6495 20.5484 25.3315 20.4167 25 20.4167H15C14.6685 20.4167 14.3505 20.5484 14.1161 20.7829C13.8817 21.0173 13.75 21.3352 13.75 21.6667C13.75 21.9983 13.8817 22.3162 14.1161 22.5506C14.3505 22.7851 14.6685 22.9167 15 22.9167H25C25.3315 22.9167 25.6495 22.7851 25.8839 22.5506C26.1183 22.3162 26.25 21.9983 26.25 21.6667ZM26.25 28.3334C26.25 28.0019 26.1183 27.684 25.8839 27.4495C25.6495 27.2151 25.3315 27.0834 25 27.0834H15C14.6685 27.0834 14.3505 27.2151 14.1161 27.4495C13.8817 27.684 13.75 28.0019 13.75 28.3334C13.75 28.6649 13.8817 28.9829 14.1161 29.2173C14.3505 29.4517 14.6685 29.5834 15 29.5834H25C25.3315 29.5834 25.6495 29.4517 25.8839 29.2173C26.1183 28.9829 26.25 28.6649 26.25 28.3334Z" fill="#0C2C40"/>
<path fill-rule="evenodd" clip-rule="evenodd" d="M11.6663 3.75C10.4508 3.75 9.28498 4.23289 8.42543 5.09243C7.56589 5.95197 7.08301 7.11776 7.08301 8.33333V31.6667C7.08301 32.8822 7.56589 34.048 8.42543 34.9076C9.28498 35.7671 10.4508 36.25 11.6663 36.25H28.333C29.5486 36.25 30.7144 35.7671 31.5739 34.9076C32.4335 34.048 32.9163 32.8822 32.9163 31.6667V13.28C32.9163 12.645 32.7097 12.0283 32.3263 11.5217L27.3297 4.90833C27.0578 4.54853 26.7062 4.25667 26.3025 4.05568C25.8988 3.85469 25.454 3.75006 25.003 3.75H11.6663ZM9.58301 8.33333C9.58301 7.18333 10.5163 6.25 11.6663 6.25H23.7497V13.5783C23.7497 14.2683 24.3097 14.8283 24.9997 14.8283H30.4163V31.6667C30.4163 32.8167 29.483 33.75 28.333 33.75H11.6663C10.5163 33.75 9.58301 32.8167 9.58301 31.6667V8.33333Z" fill="#0C2C40"/>
</svg>
