<svg width="27" height="27" viewBox="0 0 27 27" fill="none" xmlns="http://www.w3.org/2000/svg">
<path d="M24.75 3.375H2.25C1.02375 3.42 0.045 4.39875 0 5.625V21.375C0.045 22.6012 1.02375 23.58 2.25 23.625H24.75C25.9762 23.58 26.955 22.6012 27 21.375V5.625C26.9793 5.03485 26.7356 4.47451 26.318 4.05696C25.9005 3.63941 25.3401 3.39571 24.75 3.375ZM24.75 21.375H2.25V5.625H24.75V21.375ZM15.75 19.125V17.7188C15.75 15.8512 11.9925 14.9062 10.125 14.9062C8.2575 14.9062 4.5 15.8512 4.5 17.7188V19.125H15.75ZM10.125 7.875C9.37908 7.875 8.66371 8.17132 8.13626 8.69876C7.60882 9.22621 7.3125 9.94158 7.3125 10.6875C7.3125 11.0568 7.38525 11.4226 7.52659 11.7638C7.66793 12.105 7.8751 12.4151 8.13626 12.6762C8.66371 13.2037 9.37908 13.5 10.125 13.5C10.4943 13.5 10.8601 13.4273 11.2013 13.2859C11.5425 13.1446 11.8526 12.9374 12.1137 12.6762C12.3749 12.4151 12.5821 12.105 12.7234 11.7638C12.8648 11.4226 12.9375 11.0568 12.9375 10.6875C12.9375 10.3182 12.8648 9.95243 12.7234 9.6112C12.5821 9.26997 12.3749 8.95993 12.1137 8.69876C11.8526 8.4376 11.5425 8.23043 11.2013 8.08909C10.8601 7.94775 10.4943 7.875 10.125 7.875ZM15.75 7.875V9H22.5V7.875H15.75ZM15.75 10.125V11.25H22.5V10.125H15.75ZM15.75 12.375V13.5H20.25V12.375H15.75Z" fill="#0C2C40"/>
</svg>
