<svg width="28" height="28" viewBox="0 0 28 28" fill="none" xmlns="http://www.w3.org/2000/svg">
<g clip-path="url(#clip0_13_33)">
<path d="M9.7539 0.920598C6.95626 1.89112 4.54359 3.73321 2.87025 6.17629C1.19692 8.61937 0.351129 11.5347 0.457115 14.494C0.563102 17.4533 1.61528 20.3006 3.4591 22.6177C5.30292 24.9348 7.84119 26.5996 10.7011 27.3675C13.0197 27.9657 15.4489 27.992 17.7798 27.444C19.8915 26.9697 21.8437 25.9551 23.4455 24.4997C25.1125 22.9385 26.3225 20.9526 26.9455 18.7553C27.6225 16.3658 27.743 13.853 27.2976 11.4097H14.2776V16.8106H21.818C21.6673 17.672 21.3443 18.4942 20.8685 19.2279C20.3926 19.9616 19.7736 20.5917 19.0486 21.0806C18.1278 21.6897 17.0899 22.0995 16.0014 22.2837C14.9097 22.4867 13.79 22.4867 12.6983 22.2837C11.5918 22.055 10.5451 21.5983 9.62483 20.9428C8.14641 19.8963 7.03631 18.4095 6.45296 16.6947C5.85974 14.9477 5.85974 13.0538 6.45296 11.3068C6.8682 10.0823 7.55466 8.96739 8.46108 8.04529C9.49838 6.97067 10.8116 6.20253 12.2567 5.82514C13.7019 5.44775 15.223 5.4757 16.6533 5.90591C17.7706 6.24889 18.7923 6.84815 19.637 7.65591C20.4872 6.81008 21.336 5.96206 22.1833 5.11185C22.6208 4.65466 23.0976 4.21935 23.5286 3.75122C22.2392 2.55133 20.7257 1.61766 19.0748 1.00372C16.0686 -0.0878621 12.7792 -0.117197 9.7539 0.920598Z" fill="#FDFBF7"/>
<path d="M9.75383 0.920684C12.7788 -0.117816 16.0682 -0.0892531 19.0748 1.00162C20.7259 1.61973 22.2387 2.55789 23.5263 3.76225C23.0888 4.23037 22.6273 4.66787 22.181 5.12287C21.3323 5.97016 20.4842 6.81454 19.637 7.656C18.7922 6.84823 17.7705 6.24898 16.6532 5.906C15.2234 5.47427 13.7023 5.44471 12.2568 5.82056C10.8113 6.1964 9.49726 6.96313 8.45883 8.03662C7.5524 8.95873 6.86595 10.0737 6.4507 11.2982L1.91602 7.78725C3.53916 4.56847 6.34953 2.10636 9.75383 0.920684Z" fill="#E33629"/>
<path d="M0.71265 11.2652C0.956384 10.0573 1.36103 8.88748 1.91578 7.78711L6.45046 11.3068C5.85724 13.0537 5.85724 14.9477 6.45046 16.6946C4.93963 17.8613 3.42807 19.0338 1.91578 20.2121C0.527042 17.4478 0.103503 14.2982 0.71265 11.2652Z" fill="#F8BD00"/>
<path d="M14.2773 11.4082H27.2973C27.7427 13.8515 27.6222 16.3644 26.9452 18.7538C26.3222 20.9511 25.1122 22.9371 23.4452 24.4982C21.9817 23.3563 20.5117 22.2232 19.0483 21.0813C19.7738 20.5919 20.3931 19.9611 20.869 19.2266C21.3448 18.4921 21.6675 17.6691 21.8177 16.807H14.2773C14.2752 15.0088 14.2773 13.2085 14.2773 11.4082Z" fill="#587DBD"/>
<path d="M1.91406 20.2128C3.42635 19.0461 4.93792 17.8736 6.44875 16.6953C7.03327 18.4107 8.14495 19.8976 9.625 20.9434C10.5481 21.5959 11.5971 22.0489 12.705 22.2734C13.7967 22.4764 14.9164 22.4764 16.0081 22.2734C17.0966 22.0892 18.1346 21.6794 19.0553 21.0703C20.5188 22.2122 21.9888 23.3453 23.4522 24.4872C21.8507 25.9435 19.8984 26.9588 17.7866 27.4338C15.4556 27.9817 13.0264 27.9555 10.7078 27.3572C8.87404 26.8676 7.16117 26.0044 5.67656 24.8219C4.1052 23.5743 2.82178 22.0021 1.91406 20.2128Z" fill="#319F43"/>
</g>
<defs>
<clipPath id="clip0_13_33">
<rect width="28" height="28" fill="white"/>
</clipPath>
</defs>
</svg>
