<svg width="35" height="35" viewBox="0 0 35 35" fill="none" xmlns="http://www.w3.org/2000/svg">
<path d="M17.3154 9.60938C15.795 9.60938 14.3087 10.0602 13.0445 10.905C11.7803 11.7497 10.795 12.9503 10.2131 14.355C9.63126 15.7597 9.47902 17.3054 9.77564 18.7966C10.0723 20.2879 10.8044 21.6576 11.8795 22.7328C12.9547 23.8079 14.3244 24.54 15.8157 24.8367C17.3069 25.1333 18.8526 24.981 20.2573 24.3992C21.662 23.8174 22.8626 22.832 23.7074 21.5678C24.5521 20.3036 25.0029 18.8173 25.0029 17.2969C25.0008 15.2587 24.1902 13.3046 22.749 11.8633C21.3077 10.4221 19.3536 9.6115 17.3154 9.60938ZM17.3154 21.1406C16.5552 21.1406 15.8121 20.9152 15.18 20.4928C14.5479 20.0705 14.0552 19.4702 13.7643 18.7678C13.4733 18.0655 13.3972 17.2926 13.5455 16.547C13.6938 15.8014 14.0599 15.1165 14.5975 14.5789C15.135 14.0414 15.8199 13.6753 16.5656 13.527C17.3112 13.3787 18.084 13.4548 18.7864 13.7457C19.4887 14.0366 20.089 14.5293 20.5114 15.1614C20.9337 15.7935 21.1592 16.5367 21.1592 17.2969C21.1592 18.3163 20.7542 19.294 20.0334 20.0148C19.3125 20.7357 18.3349 21.1406 17.3154 21.1406ZM25.0029 0H9.62793C7.08028 0.00296707 4.63782 1.01633 2.83635 2.8178C1.03489 4.61926 0.0215218 7.06172 0.0185547 9.60938V24.9844C0.0215218 27.532 1.03489 29.9745 2.83635 31.776C4.63782 33.5774 7.08028 34.5908 9.62793 34.5938H25.0029C27.5506 34.5908 29.993 33.5774 31.7945 31.776C33.596 29.9745 34.6093 27.532 34.6123 24.9844V9.60938C34.6093 7.06172 33.596 4.61926 31.7945 2.8178C29.993 1.01633 27.5506 0.00296707 25.0029 0ZM30.7686 24.9844C30.7686 26.5135 30.1611 27.98 29.0798 29.0613C27.9986 30.1426 26.5321 30.75 25.0029 30.75H9.62793C8.09879 30.75 6.63228 30.1426 5.55102 29.0613C4.46975 27.98 3.8623 26.5135 3.8623 24.9844V9.60938C3.8623 8.08024 4.46975 6.61373 5.55102 5.53246C6.63228 4.4512 8.09879 3.84375 9.62793 3.84375H25.0029C26.5321 3.84375 27.9986 4.4512 29.0798 5.53246C30.1611 6.61373 30.7686 8.08024 30.7686 9.60938V24.9844ZM28.2061 8.96875C28.2061 9.47556 28.0558 9.971 27.7742 10.3924C27.4926 10.8138 27.0924 11.1422 26.6242 11.3362C26.1559 11.5301 25.6407 11.5809 25.1436 11.482C24.6466 11.3831 24.19 11.1391 23.8316 10.7807C23.4732 10.4223 23.2292 9.96574 23.1303 9.46867C23.0314 8.97159 23.0822 8.45636 23.2761 7.98812C23.4701 7.51989 23.7985 7.11968 24.2199 6.83811C24.6413 6.55654 25.1367 6.40625 25.6436 6.40625C26.3232 6.40625 26.975 6.67623 27.4555 7.15679C27.9361 7.63735 28.2061 8.28913 28.2061 8.96875Z" fill="black"/>
</svg>
