<svg width="27" height="27" viewBox="0 0 27 27" fill="none" xmlns="http://www.w3.org/2000/svg">
<path fill-rule="evenodd" clip-rule="evenodd" d="M0 9.7C0 8.98392 0.284463 8.29716 0.790812 7.79081C1.29716 7.28446 1.98392 7 2.7 7H24.3C25.0161 7 25.7028 7.28446 26.2092 7.79081C26.7155 8.29716 27 8.98392 27 9.7V24.1C27 24.8161 26.7155 25.5028 26.2092 26.0092C25.7028 26.5155 25.0161 26.8 24.3 26.8H2.7C1.98392 26.8 1.29716 26.5155 0.790812 26.0092C0.284463 25.5028 0 24.8161 0 24.1L0 9.7ZM5.4 14.2C5.4 13.2452 5.77928 12.3295 6.45442 11.6544C7.12955 10.9793 8.04522 10.6 9 10.6C9.95478 10.6 10.8705 10.9793 11.5456 11.6544C12.2207 12.3295 12.6 13.2452 12.6 14.2C12.6 15.1548 12.2207 16.0705 11.5456 16.7456C10.8705 17.4207 9.95478 17.8 9 17.8C8.04522 17.8 7.12955 17.4207 6.45442 16.7456C5.77928 16.0705 5.4 15.1548 5.4 14.2ZM21.6 14.2H16.2V12.4H21.6V14.2ZM21.6 19.6H16.2V17.8H21.6V19.6ZM9 19.6C8.02169 19.6006 7.06283 19.8733 6.23062 20.3877C5.39842 20.902 4.72567 21.6376 4.2876 22.5124L3.6936 23.6968C3.62477 23.8341 3.59225 23.9868 3.59913 24.1403C3.60601 24.2938 3.65206 24.4429 3.7329 24.5736C3.81374 24.7042 3.92667 24.812 4.06095 24.8866C4.19522 24.9613 4.34637 25.0003 4.5 25H13.5C13.6535 25 13.8044 24.9607 13.9384 24.886C14.0725 24.8112 14.1851 24.7034 14.2658 24.5728C14.3464 24.4422 14.3923 24.2932 14.3991 24.1399C14.4059 23.9865 14.3734 23.834 14.3046 23.6968L13.7124 22.5124C13.2743 21.6376 12.6016 20.902 11.7694 20.3877C10.9372 19.8733 9.97831 19.6006 9 19.6Z" fill="#0C2C40"/>
</svg>
