<svg width="35" height="35" viewBox="0 0 35 35" fill="none" xmlns="http://www.w3.org/2000/svg">
<path fill-rule="evenodd" clip-rule="evenodd" d="M9.02449 2.91675H25.9776C26.7796 2.91675 27.5737 3.07473 28.3146 3.38168C29.0555 3.68863 29.7287 4.13853 30.2958 4.70568C30.8628 5.27283 31.3125 5.94613 31.6193 6.68712C31.9261 7.42811 32.0838 8.22227 32.0837 9.02425V25.9774C32.0837 26.7794 31.9257 27.5735 31.6187 28.3144C31.3118 29.0553 30.8619 29.7285 30.2947 30.2955C29.7276 30.8625 29.0543 31.3123 28.3133 31.619C27.5723 31.9258 26.7781 32.0836 25.9762 32.0834H9.02449C8.22239 32.0836 7.42811 31.9258 6.68703 31.6189C5.94594 31.312 5.27258 30.8622 4.70541 30.295C4.13824 29.7278 3.68837 29.0545 3.38151 28.3134C3.07465 27.5723 2.9168 26.778 2.91699 25.9759V9.02425C2.91777 7.40468 3.56148 5.85166 4.70669 4.70645C5.8519 3.56124 7.40492 2.91752 9.02449 2.91675ZM9.02449 5.83341C7.26137 5.83341 5.83366 7.26258 5.83366 9.02425V25.9774C5.83366 27.7376 7.26283 29.1667 9.02449 29.1667H25.9776C27.7378 29.1667 29.167 27.7376 29.167 25.9759V9.02425C29.167 7.26258 27.7378 5.83341 25.9762 5.83341H9.02449Z" fill="#0C2C40"/>
<path fill-rule="evenodd" clip-rule="evenodd" d="M25.1419 15.931C24.8337 15.6736 24.4458 15.531 24.0443 15.5275C23.6427 15.524 23.2524 15.66 22.9398 15.9121L15.2923 22.1056C14.7597 22.5366 14.0977 22.7759 13.4126 22.7852C12.7276 22.7944 12.0593 22.5731 11.5152 22.1566L9.49545 20.6108C9.46944 20.591 9.43723 20.5812 9.40461 20.583C9.37199 20.5849 9.34111 20.5984 9.31753 20.621L5.38295 24.3864C5.24632 24.5267 5.08284 24.638 4.90225 24.7138C4.72167 24.7895 4.52768 24.8281 4.33186 24.8273C4.13603 24.8264 3.94239 24.7861 3.76247 24.7088C3.58255 24.6315 3.42005 24.5187 3.28465 24.3773C3.14925 24.2358 3.04373 24.0685 2.97438 23.8854C2.90504 23.7022 2.87329 23.507 2.88102 23.3113C2.88876 23.1157 2.93582 22.9236 3.01941 22.7465C3.10299 22.5694 3.22139 22.4109 3.36753 22.2806L7.30066 18.5137C7.82715 18.0097 8.51653 17.7106 9.24427 17.6705C9.972 17.6304 10.6901 17.8519 11.2688 18.295L13.2886 19.8408C13.3129 19.8595 13.3427 19.8695 13.3734 19.8693C13.4041 19.869 13.4338 19.8585 13.4577 19.8393L21.1023 13.6458C21.9405 12.9677 22.9882 12.6017 24.0663 12.6105C25.1444 12.6193 26.1859 13.0022 27.013 13.6939L31.563 17.5046C31.8594 17.7531 32.045 18.1091 32.0789 18.4945C32.1128 18.8798 31.9923 19.2629 31.7438 19.5593C31.4953 19.8558 31.1392 20.0414 30.7538 20.0753C30.3685 20.1092 29.9855 19.9887 29.689 19.7402L25.1419 15.931Z" fill="#0C2C40"/>
<path d="M14.9933 12.6002C14.9933 13.2345 14.7413 13.8428 14.2928 14.2913C13.8443 14.7399 13.2359 14.9918 12.6016 14.9918C11.9673 14.9918 11.359 14.7399 10.9105 14.2913C10.4619 13.8428 10.21 13.2345 10.21 12.6002C10.21 11.9659 10.4619 11.3575 10.9105 10.909C11.359 10.4605 11.9673 10.2085 12.6016 10.2085C13.2359 10.2085 13.8443 10.4605 14.2928 10.909C14.7413 11.3575 14.9933 11.9659 14.9933 12.6002Z" fill="#0C2C40"/>
</svg>
