<svg width="27" height="27" viewBox="0 0 27 27" fill="none" xmlns="http://www.w3.org/2000/svg">
<path d="M6.75 24.75C6.13125 24.75 5.60175 24.5299 5.1615 24.0896C4.72125 23.6494 4.50075 23.1195 4.5 22.5V11.25C4.5 10.6313 4.7205 10.1018 5.1615 9.6615C5.6025 9.22125 6.132 9.00075 6.75 9H7.875V6.75C7.875 5.19375 8.42363 3.86738 9.52088 2.77088C10.6181 1.67438 11.9445 1.12575 13.5 1.125C15.0555 1.12425 16.3822 1.67288 17.4803 2.77088C18.5782 3.86888 19.1265 5.19525 19.125 6.75V9H20.25C20.8687 9 21.3986 9.2205 21.8396 9.6615C22.2806 10.1025 22.5007 10.632 22.5 11.25V22.5C22.5 23.1187 22.2799 23.6486 21.8396 24.0896C21.3994 24.5306 20.8695 24.7507 20.25 24.75H6.75ZM6.75 22.5H20.25V11.25H6.75V22.5ZM13.5 19.125C14.1187 19.125 14.6486 18.9049 15.0896 18.4646C15.5306 18.0244 15.7507 17.4945 15.75 16.875C15.7493 16.2555 15.5291 15.726 15.0896 15.2865C14.6501 14.847 14.1202 14.6265 13.5 14.625C12.8798 14.6235 12.3503 14.844 11.9115 15.2865C11.4728 15.729 11.2523 16.2585 11.25 16.875C11.2477 17.4915 11.4683 18.0214 11.9115 18.4646C12.3548 18.9079 12.8842 19.128 13.5 19.125ZM10.125 9H16.875V6.75C16.875 5.8125 16.5469 5.01563 15.8906 4.35938C15.2344 3.70313 14.4375 3.375 13.5 3.375C12.5625 3.375 11.7656 3.70313 11.1094 4.35938C10.4531 5.01563 10.125 5.8125 10.125 6.75V9Z" fill="#456B83"/>
</svg>
