<svg width="29" height="31" viewBox="0 0 29 31" fill="none" xmlns="http://www.w3.org/2000/svg">
<path d="M24.2988 11.1665C24.9971 11.521 25.6255 11.9561 26.1841 12.4717C26.7427 12.9873 27.2261 13.5674 27.6343 14.2119C28.0425 14.8564 28.3486 15.5439 28.5527 16.2744C28.7568 17.0049 28.8643 17.7676 28.875 18.5625H26.8125C26.8125 17.7139 26.6514 16.9136 26.3291 16.1616C26.0068 15.4097 25.561 14.7544 24.9917 14.1958C24.4224 13.6372 23.7671 13.1968 23.0259 12.8745C22.2847 12.5522 21.4844 12.3857 20.625 12.375C19.7764 12.375 18.9761 12.5361 18.2241 12.8584C17.4722 13.1807 16.8169 13.6265 16.2583 14.1958C15.6997 14.7651 15.2593 15.4204 14.937 16.1616C14.6147 16.9028 14.4482 17.7031 14.4375 18.5625C14.4375 19.54 14.2173 20.4692 13.7769 21.3501C13.3364 22.231 12.7188 22.9614 11.9238 23.5415C12.6221 23.896 13.2505 24.3311 13.8091 24.8467C14.3677 25.3623 14.8511 25.9424 15.2593 26.5869C15.6675 27.2314 15.9736 27.9189 16.1777 28.6494C16.3818 29.3799 16.4893 30.1426 16.5 30.9375H14.4375C14.4375 30.0889 14.2764 29.2886 13.9541 28.5366C13.6318 27.7847 13.186 27.1294 12.6167 26.5708C12.0474 26.0122 11.3921 25.5718 10.6509 25.2495C9.90967 24.9272 9.10938 24.7607 8.25 24.75C7.40137 24.75 6.60107 24.9111 5.84912 25.2334C5.09717 25.5557 4.44189 26.0015 3.8833 26.5708C3.32471 27.1401 2.88428 27.7954 2.56201 28.5366C2.23975 29.2778 2.07324 30.0781 2.0625 30.9375H0C0 30.1533 0.107422 29.396 0.322266 28.6655C0.537109 27.9351 0.843262 27.2476 1.24072 26.603C1.63818 25.9585 2.11621 25.3784 2.6748 24.8628C3.2334 24.3472 3.86719 23.9067 4.57617 23.5415C3.79199 22.9614 3.17969 22.231 2.73926 21.3501C2.29883 20.4692 2.07324 19.54 2.0625 18.5625C2.0625 17.7139 2.22363 16.9136 2.5459 16.1616C2.86816 15.4097 3.31396 14.7544 3.8833 14.1958C4.45264 13.6372 5.10791 13.1968 5.84912 12.8745C6.59033 12.5522 7.39062 12.3857 8.25 12.375C9.22754 12.375 10.1567 12.5952 11.0376 13.0356C11.9185 13.4761 12.6489 14.0938 13.229 14.8887C13.6372 14.083 14.1582 13.3633 14.792 12.7295C15.4258 12.0957 16.1455 11.5747 16.9512 11.1665C16.167 10.5864 15.5547 9.85596 15.1143 8.9751C14.6738 8.09424 14.4482 7.16504 14.4375 6.1875C14.4375 5.33887 14.5986 4.53857 14.9209 3.78662C15.2432 3.03467 15.689 2.37939 16.2583 1.8208C16.8276 1.26221 17.4829 0.821777 18.2241 0.499512C18.9653 0.177246 19.7656 0.0107422 20.625 0C21.4736 0 22.2739 0.161133 23.0259 0.483398C23.7778 0.805664 24.4331 1.25146 24.9917 1.8208C25.5503 2.39014 25.9907 3.04541 26.313 3.78662C26.6353 4.52783 26.8018 5.32812 26.8125 6.1875C26.8125 7.16504 26.5923 8.09424 26.1519 8.9751C25.7114 9.85596 25.0938 10.5864 24.2988 11.1665ZM8.25 22.6875C8.80859 22.6875 9.34033 22.5801 9.84521 22.3652C10.3501 22.1504 10.7852 21.855 11.1504 21.479C11.5156 21.103 11.811 20.668 12.0366 20.1738C12.2622 19.6797 12.375 19.1426 12.375 18.5625C12.375 18.0039 12.2676 17.4722 12.0527 16.9673C11.8379 16.4624 11.5425 16.0273 11.1665 15.6621C10.7905 15.2969 10.3501 15.0015 9.84521 14.7759C9.34033 14.5503 8.80859 14.4375 8.25 14.4375C7.68066 14.4375 7.14893 14.5449 6.65479 14.7598C6.16064 14.9746 5.72559 15.27 5.34961 15.646C4.97363 16.022 4.67822 16.4624 4.46338 16.9673C4.24854 17.4722 4.13574 18.0039 4.125 18.5625C4.125 19.1318 4.23242 19.6636 4.44727 20.1577C4.66211 20.6519 4.95752 21.0869 5.3335 21.4629C5.70947 21.8389 6.14453 22.1343 6.63867 22.3491C7.13281 22.564 7.66992 22.6768 8.25 22.6875ZM16.5 6.1875C16.5 6.75684 16.6074 7.28857 16.8223 7.78271C17.0371 8.27686 17.3325 8.71191 17.7085 9.08789C18.0845 9.46387 18.5195 9.75928 19.0137 9.97412C19.5078 10.189 20.0449 10.3018 20.625 10.3125C21.1836 10.3125 21.7153 10.2051 22.2202 9.99023C22.7251 9.77539 23.1602 9.47998 23.5254 9.104C23.8906 8.72803 24.186 8.29297 24.4116 7.79883C24.6372 7.30469 24.75 6.76758 24.75 6.1875C24.75 5.62891 24.6426 5.09717 24.4277 4.59229C24.2129 4.0874 23.9175 3.65234 23.5415 3.28711C23.1655 2.92188 22.7251 2.62646 22.2202 2.40088C21.7153 2.17529 21.1836 2.0625 20.625 2.0625C20.0557 2.0625 19.5239 2.16992 19.0298 2.38477C18.5356 2.59961 18.1006 2.89502 17.7246 3.271C17.3486 3.64697 17.0532 4.0874 16.8384 4.59229C16.6235 5.09717 16.5107 5.62891 16.5 6.1875Z" fill="white"/>
</svg>
