<svg width="24" height="21" viewBox="0 0 24 21" fill="none" xmlns="http://www.w3.org/2000/svg">
<path d="M18.2647 16.1025L17.4139 16.6917L17.1429 16.7539L15.897 17.0397L15.312 17.1199C15.3049 17.1208 15.2978 17.1218 15.2907 17.1227C16.0671 16.8638 16.8042 16.4971 17.4801 16.0328C18.4657 15.3558 19.2817 14.4657 19.8698 13.4324C19.7464 14.4754 19.1921 15.4604 18.2647 16.1025Z" stroke="#0C2C40" stroke-width="2.95988"/>
<path d="M2.46769 11.448L3.59339 12.9569L2.63859 15.8691L6.21909 13.9595L8.37809 14.4245C9.00572 14.5597 9.64593 14.6278 10.288 14.6278H10.9653C11.9315 14.6278 12.8906 14.4627 13.8013 14.1396L14.0947 14.0354C14.9477 13.7328 15.7376 13.2754 16.4248 12.6864C17.2791 11.9542 17.9482 11.0303 18.3774 9.99021L18.5595 9.54916C18.8259 8.90362 18.9232 8.20079 18.8423 7.50714L18.7635 6.83161C18.6769 6.08925 18.4062 5.38029 17.9761 4.76907L17.5844 4.21237C17.0768 3.49108 16.4496 2.86193 15.7299 2.35213L15.6827 2.31873C14.9202 1.77863 14.0515 1.4069 13.1344 1.22823L12.1767 1.04168C11.2966 0.870235 10.3966 0.824881 9.50376 0.906984L8.77319 0.974163L8.01465 1.04391C7.14537 1.12385 6.30217 1.38352 5.53852 1.80646L5.19205 1.99835C4.14008 2.58098 3.2345 3.39538 2.5439 4.37984L2.42311 4.55203C1.72445 5.548 1.34961 6.73505 1.34961 7.95165V8.07948C1.34961 9.29346 1.74177 10.475 2.46769 11.448Z" stroke="#0C2C40" stroke-width="1.05028"/>
<path d="M6.12402 6.22559H14.1443" stroke="#0C2C40" stroke-width="1.05028" stroke-linecap="round"/>
<path d="M6.12402 9.18555H11.0899" stroke="#0C2C40" stroke-width="1.05028" stroke-linecap="round"/>
</svg>
