<svg width="31" height="32" viewBox="0 0 31 32" fill="none" xmlns="http://www.w3.org/2000/svg">
<path fill-rule="evenodd" clip-rule="evenodd" d="M4.15106 11.7474C4.15106 8.63178 5.38872 5.64379 7.59178 3.44073C9.79485 1.23767 12.7828 0 15.8984 0C19.014 0 22.002 1.23767 24.2051 3.44073C26.4082 5.64379 27.6458 8.63178 27.6458 11.7474V18.0641L30.7035 24.1795C30.8443 24.4609 30.9107 24.7737 30.8966 25.0881C30.8824 25.4025 30.7882 25.708 30.6227 25.9757C30.4572 26.2434 30.2261 26.4644 29.9512 26.6176C29.6763 26.7708 29.3668 26.8512 29.0521 26.8512H22.3998C22.0265 28.2915 21.1855 29.567 20.0088 30.4776C18.8321 31.3882 17.3863 31.8823 15.8984 31.8823C14.4106 31.8823 12.9648 31.3882 11.7881 30.4776C10.6114 29.567 9.7704 28.2915 9.3971 26.8512H2.74473C2.43003 26.8512 2.12054 26.7708 1.84566 26.6176C1.57078 26.4644 1.33964 26.2434 1.17418 25.9757C1.00872 25.708 0.914444 25.4025 0.900302 25.0881C0.886161 24.7737 0.952625 24.4609 1.09338 24.1795L4.15106 18.0641V11.7474ZM12.9918 26.8512C13.2864 27.3614 13.7101 27.785 14.2203 28.0796C14.7305 28.3741 15.3093 28.5292 15.8984 28.5292C16.4876 28.5292 17.0663 28.3741 17.5766 28.0796C18.0868 27.785 18.5105 27.3614 18.8051 26.8512H12.9918ZM15.8984 3.35639C13.673 3.35639 11.5387 4.24044 9.96511 5.81406C8.3915 7.38767 7.50745 9.52195 7.50745 11.7474V18.0641C7.50742 18.5849 7.38619 19.0986 7.15335 19.5644L5.18986 23.4948H26.6087L24.6452 19.5644C24.4118 19.0987 24.29 18.5851 24.2894 18.0641V11.7474C24.2894 9.52195 23.4054 7.38767 21.8318 5.81406C20.2581 4.24044 18.1239 3.35639 15.8984 3.35639Z" fill="white"/>
</svg>
