<svg width="28" height="28" viewBox="0 0 28 28" fill="none" xmlns="http://www.w3.org/2000/svg">
<path d="M5.83403 5.83333C5.83414 5.60818 5.76909 5.38782 5.64675 5.19882C5.5244 5.00981 5.34998 4.86025 5.14453 4.76816C5.31253 4.63633 5.51553 4.5465 5.73953 4.51383L18.3372 2.71366C18.6682 2.66636 19.0054 2.69072 19.3262 2.78512C19.6469 2.87951 19.9436 3.04173 20.1962 3.26078C20.4487 3.47983 20.6513 3.7506 20.7901 4.05475C20.9289 4.3589 21.0007 4.68933 21.0007 5.02366V5.98033C20.6196 5.88233 20.2276 5.83294 19.834 5.83333H5.83403ZM11.3757 15.1667C11.3757 14.4705 11.6523 13.8028 12.1445 13.3105C12.6368 12.8182 13.3045 12.5417 14.0007 12.5417C14.6969 12.5417 15.3646 12.8182 15.8569 13.3105C16.3491 13.8028 16.6257 14.4705 16.6257 15.1667C16.6257 15.8629 16.3491 16.5305 15.8569 17.0228C15.3646 17.5151 14.6969 17.7917 14.0007 17.7917C13.3045 17.7917 12.6368 17.5151 12.1445 17.0228C11.6523 16.5305 11.3757 15.8629 11.3757 15.1667Z" fill="#0C2C40"/>
<path fill-rule="evenodd" clip-rule="evenodd" d="M21.0003 7.19825C22.3595 7.68009 23.3337 8.97625 23.3337 10.4999V22.1666C23.3337 23.0948 22.9649 23.9851 22.3085 24.6415C21.6522 25.2978 20.7619 25.6666 19.8337 25.6666H8.16699C7.23873 25.6666 6.3485 25.2978 5.69212 24.6415C5.03574 23.9851 4.66699 23.0948 4.66699 22.1666V5.83325C4.66699 6.14267 4.78991 6.43942 5.0087 6.65821C5.22749 6.877 5.52424 6.99992 5.83366 6.99992H19.8337C20.242 6.99992 20.6352 7.06992 21.0003 7.19825ZM14.0003 10.7916C12.84 10.7916 11.7272 11.2525 10.9067 12.073C10.0863 12.8935 9.62533 14.0063 9.62533 15.1666C9.62533 16.3269 10.0863 17.4397 10.9067 18.2602C11.7272 19.0807 12.84 19.5416 14.0003 19.5416C15.1606 19.5416 16.2734 19.0807 17.0939 18.2602C17.9144 17.4397 18.3753 16.3269 18.3753 15.1666C18.3753 14.0063 17.9144 12.8935 17.0939 12.073C16.2734 11.2525 15.1606 10.7916 14.0003 10.7916ZM11.667 21.2916C11.4349 21.2916 11.2124 21.3838 11.0483 21.5479C10.8842 21.712 10.792 21.9345 10.792 22.1666C10.792 22.3987 10.8842 22.6212 11.0483 22.7853C11.2124 22.9494 11.4349 23.0416 11.667 23.0416H16.3337C16.5657 23.0416 16.7883 22.9494 16.9524 22.7853C17.1165 22.6212 17.2087 22.3987 17.2087 22.1666C17.2087 21.9345 17.1165 21.712 16.9524 21.5479C16.7883 21.3838 16.5657 21.2916 16.3337 21.2916H11.667Z" fill="#0C2C40"/>
</svg>
