<svg width="34" height="34" viewBox="0 0 34 34" fill="none" xmlns="http://www.w3.org/2000/svg">
<path d="M25.0709 9.74916H8.35658V4.17773H25.0709V9.74916ZM25.0709 17.4099C25.4655 17.4099 25.7965 17.2762 26.064 17.0087C26.3314 16.7413 26.4647 16.4107 26.4637 16.017C26.4628 15.6233 26.3291 15.2927 26.0626 15.0253C25.7961 14.7579 25.4655 14.6242 25.0709 14.6242C24.6762 14.6242 24.3457 14.7579 24.0792 15.0253C23.8127 15.2927 23.6789 15.6233 23.678 16.017C23.6771 16.4107 23.8108 16.7418 24.0792 17.0101C24.3475 17.2785 24.6781 17.4117 25.0709 17.4099ZM22.2852 26.4634V20.892H11.1423V26.4634H22.2852ZM25.0709 29.2492H8.35658V23.6777H2.78516V15.3206C2.78516 14.1367 3.19141 13.1445 4.00391 12.3441C4.81641 11.5436 5.80301 11.1429 6.96373 11.142H26.4637C27.6477 11.142 28.6403 11.5427 29.4417 12.3441C30.243 13.1454 30.6432 14.1376 30.6423 15.3206V23.6777H25.0709V29.2492Z" fill="black"/>
</svg>
