<svg width="22" height="26" viewBox="0 0 22 26" fill="none" xmlns="http://www.w3.org/2000/svg">
<path d="M7.75784 14.3029C7.89614 14.3029 11.1046 14.4412 13.0131 13.9709H13.0269C15.2258 13.4316 18.2822 11.8827 19.0705 6.82103C19.0705 6.82103 20.8268 0.487061 12.1142 0.487061H4.63235C3.95469 0.487061 3.37385 0.984927 3.26321 1.64875L0.0823988 21.7847C0.0132506 22.1996 0.345161 22.5868 0.76005 22.5868H5.50361L6.6653 15.2294C6.74828 14.7039 7.20466 14.3029 7.75784 14.3029Z" fill="#0C2C40"/>
<path d="M16.2779 11.7782C15.2294 12.7805 14.0156 13.2755 12.9739 13.5371H12.9604L12.9093 13.5497C12.0041 13.7727 10.7651 13.8554 9.71173 13.8795C8.85111 13.8992 8.16436 13.8799 7.88388 13.872C7.81959 13.8702 7.77665 13.869 7.75784 13.869C6.99 13.869 6.35283 14.4265 6.23674 15.1618L5.13287 22.1529H0.76005C0.612377 22.1529 0.485441 22.0056 0.510382 21.856L0.510955 21.8524L3.69118 1.72008C3.69127 1.71952 3.69136 1.71897 3.69146 1.71842C3.76821 1.26292 4.16908 0.920931 4.63235 0.920931H12.1142C14.2427 0.920931 15.6875 1.30812 16.6648 1.85531C17.6349 2.39846 18.1682 3.11219 18.4582 3.8188C18.7516 4.53355 18.802 5.25701 18.7754 5.81053C18.7622 6.08575 18.7301 6.31437 18.7019 6.4724C18.6877 6.55129 18.6746 6.61219 18.6654 6.65207C18.6608 6.672 18.6571 6.68664 18.6548 6.69561L18.6525 6.70476L18.6524 6.7051L18.6523 6.70555L18.6522 6.70585L18.6521 6.70605L18.6457 6.72937L18.6418 6.75426C18.2605 9.20232 17.3385 10.7643 16.2779 11.7782Z" stroke="#0C2C40" stroke-opacity="0.3" stroke-width="0.867741"/>
<path d="M20.2876 7.80298C19.1674 12.9614 15.6408 15.6859 10.026 15.6859H7.99304L6.56859 24.7028C6.51327 25.0624 6.78986 25.3804 7.14943 25.3804H9.77706C10.2473 25.3804 10.6622 25.0347 10.7313 24.5645C10.8419 24.0113 11.4504 19.9731 11.5749 19.2816C11.6441 18.8114 12.059 18.4656 12.5292 18.4656H13.1377C17.0376 18.4656 20.094 16.8752 20.9929 12.2976C21.3525 10.4444 21.1588 8.92318 20.2876 7.80298Z" fill="#5C6BEF"/>
<path d="M10.3059 24.4794L10.3037 24.4903L10.3021 24.5014C10.2652 24.752 10.0388 24.9466 9.77706 24.9466H7.14943C7.05434 24.9466 6.98308 24.8642 6.99732 24.7694C6.99735 24.7692 6.99738 24.769 6.99741 24.7688L8.36375 16.1197H10.026C12.9028 16.1197 15.2889 15.4212 17.1068 14.0227C18.6792 12.8131 19.7941 11.1045 20.4407 8.94824C20.7794 9.82141 20.8207 10.9072 20.567 12.2145C20.1346 14.4161 19.1958 15.8512 17.9392 16.7446C16.6735 17.6446 15.0337 18.0318 13.1377 18.0318H12.5292C11.8529 18.0318 11.2514 18.5251 11.1468 19.211C11.0885 19.5365 10.9331 20.5347 10.7711 21.5752C10.7538 21.686 10.7365 21.7972 10.7192 21.9081C10.5364 23.0815 10.3588 24.2148 10.3059 24.4794Z" stroke="#0C2C40" stroke-opacity="0.3" stroke-width="0.867741"/>
</svg>
