<svg width="34" height="34" viewBox="0 0 34 34" fill="none" xmlns="http://www.w3.org/2000/svg">
<path d="M27.8979 9.42324C28.0938 9.61911 28.2048 9.88354 28.2048 10.161V30.2932C28.2048 30.8711 27.738 31.3379 27.1602 31.3379H6.2673C5.68948 31.3379 5.22266 30.8711 5.22266 30.2932V3.13253C5.22266 2.55472 5.68948 2.08789 6.2673 2.08789H20.1317C20.4092 2.08789 20.6768 2.19888 20.8727 2.39475L27.8979 9.42324ZM25.7956 10.6409L19.6518 4.4971V10.6409H25.7956ZM20.671 20.802C20.1754 20.7857 19.6485 20.8239 19.0501 20.8986C18.2569 20.4093 17.7228 19.7371 17.3435 18.7496L17.3784 18.6066L17.4189 18.4375C17.5592 17.8457 17.6346 17.4138 17.6572 16.9783C17.6741 16.6496 17.6559 16.3463 17.5974 16.0652C17.4897 15.4583 17.0604 15.1035 16.5195 15.0816C16.0151 15.061 15.5516 15.3428 15.4331 15.7792C15.2401 16.485 15.3531 17.4138 15.7621 18.9977C15.2411 20.2399 14.5526 21.6962 14.0907 22.5084C13.474 22.8263 12.9938 23.1156 12.5903 23.4361C12.0582 23.8596 11.7259 24.2947 11.6345 24.7517C11.5901 24.9636 11.657 25.2404 11.8095 25.4673C11.9825 25.7246 12.243 25.8917 12.5554 25.9159C13.3438 25.9769 14.3127 25.1641 15.3825 23.3284C15.4899 23.2925 15.6035 23.2546 15.7422 23.2076L16.1307 23.0764C16.3765 22.9935 16.5547 22.9341 16.731 22.8769C17.4949 22.6282 18.0727 22.4712 18.5983 22.3817C19.5117 22.8707 20.5675 23.1913 21.2785 23.1913C21.8654 23.1913 22.2621 22.8871 22.4054 22.4082C22.5311 21.9877 22.4315 21.5 22.1612 21.2303C21.8818 20.9558 21.3679 20.8245 20.671 20.802ZM12.5753 24.9943V24.9825L12.5796 24.9714C12.6274 24.848 12.6887 24.7302 12.7624 24.6202C12.9021 24.4054 13.0944 24.1795 13.3327 23.9389C13.4606 23.8099 13.5938 23.6842 13.7502 23.5432C13.7851 23.5119 14.0084 23.3131 14.0502 23.2739L14.4149 22.9344L14.1498 23.3565C13.7476 23.9976 13.3839 24.4592 13.0725 24.7602C12.9579 24.8712 12.857 24.9528 12.7754 25.0054C12.7485 25.0234 12.72 25.0389 12.6902 25.0518C12.6768 25.0573 12.6651 25.0606 12.6533 25.0615C12.6409 25.0631 12.6283 25.0614 12.6168 25.0566C12.6045 25.0515 12.594 25.0428 12.5866 25.0317C12.5792 25.0206 12.5753 25.0076 12.5753 24.9943ZM16.6866 17.8685L16.6129 17.9991L16.5672 17.8561C16.466 17.5352 16.3915 17.0517 16.371 16.6156C16.3475 16.1194 16.387 15.8217 16.5436 15.8217C16.7637 15.8217 16.8645 16.1742 16.8724 16.7047C16.8796 17.1709 16.8061 17.656 16.6863 17.8685H16.6866ZM16.497 19.777L16.5469 19.6447L16.6151 19.7688C16.9968 20.4622 17.492 21.0406 18.0365 21.4438L18.154 21.5307L18.0107 21.56C17.4776 21.6704 16.9811 21.8362 16.3021 22.1101C16.3729 22.0814 15.5963 22.3993 15.3998 22.4747L15.2284 22.5404L15.3198 22.3811C15.7229 21.6792 16.0954 20.8363 16.4966 19.777H16.497ZM21.6425 22.2665C21.3859 22.3677 20.8335 22.2772 19.861 21.862L19.6142 21.7569L19.8819 21.7373C20.6426 21.6808 21.1812 21.7226 21.4953 21.8375C21.6291 21.8865 21.7182 21.9482 21.7577 22.0187C21.7785 22.0521 21.7855 22.0922 21.7772 22.1307C21.7689 22.1691 21.746 22.2028 21.7133 22.2247C21.6926 22.243 21.6685 22.2571 21.6425 22.2665Z" fill="black"/>
</svg>
