<svg width="145" height="145" viewBox="0 0 145 145" fill="none" xmlns="http://www.w3.org/2000/svg">
<path d="M72.4997 12.083C39.2705 12.083 12.083 39.2705 12.083 72.4997C12.083 105.729 39.2705 132.916 72.4997 132.916C105.729 132.916 132.916 105.729 132.916 72.4997C132.916 39.2705 105.729 12.083 72.4997 12.083ZM72.4997 120.833C45.8559 120.833 24.1663 99.1434 24.1663 72.4997C24.1663 45.8559 45.8559 24.1663 72.4997 24.1663C99.1434 24.1663 120.833 45.8559 120.833 72.4997C120.833 99.1434 99.1434 120.833 72.4997 120.833ZM100.231 45.7955L60.4163 85.6101L44.7684 70.0226L36.2497 78.5413L60.4163 102.708L108.75 54.3747L100.231 45.7955Z" fill="white"/>
</svg>
