<svg width="18" height="5" viewBox="0 0 18 5" fill="none" xmlns="http://www.w3.org/2000/svg">
<path d="M15.8125 0C16.3595 0 16.8841 0.217298 17.2709 0.604092C17.6577 0.990886 17.875 1.51549 17.875 2.0625C17.875 2.60951 17.6577 3.13411 17.2709 3.52091C16.8841 3.9077 16.3595 4.125 15.8125 4.125C15.2655 4.125 14.7409 3.9077 14.3541 3.52091C13.9673 3.13411 13.75 2.60951 13.75 2.0625C13.75 1.51549 13.9673 0.990886 14.3541 0.604092C14.7409 0.217298 15.2655 0 15.8125 0ZM8.9375 0C9.48451 0 10.0091 0.217298 10.3959 0.604092C10.7827 0.990886 11 1.51549 11 2.0625C11 2.60951 10.7827 3.13411 10.3959 3.52091C10.0091 3.9077 9.48451 4.125 8.9375 4.125C8.39049 4.125 7.86589 3.9077 7.47909 3.52091C7.0923 3.13411 6.875 2.60951 6.875 2.0625C6.875 1.51549 7.0923 0.990886 7.47909 0.604092C7.86589 0.217298 8.39049 0 8.9375 0ZM2.0625 0C2.60951 0 3.13411 0.217298 3.52091 0.604092C3.9077 0.990886 4.125 1.51549 4.125 2.0625C4.125 2.60951 3.9077 3.13411 3.52091 3.52091C3.13411 3.9077 2.60951 4.125 2.0625 4.125C1.51549 4.125 0.990886 3.9077 0.604092 3.52091C0.217299 3.13411 0 2.60951 0 2.0625C0 1.51549 0.217299 0.990886 0.604092 0.604092C0.990886 0.217298 1.51549 0 2.0625 0Z" fill="#0C2C40"/>
</svg>
