<svg width="27" height="27" viewBox="0 0 27 27" fill="none" xmlns="http://www.w3.org/2000/svg">
<path fill-rule="evenodd" clip-rule="evenodd" d="M1.6875 23.625C1.6875 23.625 0 23.625 0 21.9375C0 20.25 1.6875 15.1875 10.125 15.1875C18.5625 15.1875 20.25 20.25 20.25 21.9375C20.25 23.625 18.5625 23.625 18.5625 23.625H1.6875ZM10.125 13.5C11.4677 13.5 12.7553 12.9666 13.7047 12.0172C14.6541 11.0678 15.1875 9.78016 15.1875 8.4375C15.1875 7.09484 14.6541 5.80717 13.7047 4.85777C12.7553 3.90837 11.4677 3.375 10.125 3.375C8.78234 3.375 7.49468 3.90837 6.54527 4.85777C5.59587 5.80717 5.0625 7.09484 5.0625 8.4375C5.0625 9.78016 5.59587 11.0678 6.54527 12.0172C7.49468 12.9666 8.78234 13.5 10.125 13.5ZM20.4964 8.68388C20.5748 8.6053 20.6679 8.54296 20.7704 8.50042C20.8729 8.45789 20.9828 8.43599 21.0938 8.43599C21.2047 8.43599 21.3146 8.45789 21.4171 8.50042C21.5196 8.54296 21.6127 8.6053 21.6911 8.68388L23.625 10.6194L25.5589 8.68388C25.7173 8.52544 25.9322 8.43643 26.1562 8.43643C26.3803 8.43643 26.5952 8.52544 26.7536 8.68388C26.9121 8.84231 27.0011 9.05719 27.0011 9.28125C27.0011 9.50531 26.9121 9.72019 26.7536 9.87862L24.8181 11.8125L26.7536 13.7464C26.9121 13.9048 27.0011 14.1197 27.0011 14.3438C27.0011 14.5678 26.9121 14.7827 26.7536 14.9411C26.5952 15.0996 26.3803 15.1886 26.1562 15.1886C25.9322 15.1886 25.7173 15.0996 25.5589 14.9411L23.625 13.0056L21.6911 14.9411C21.5327 15.0996 21.3178 15.1886 21.0938 15.1886C20.8697 15.1886 20.6548 15.0996 20.4964 14.9411C20.3379 14.7827 20.2489 14.5678 20.2489 14.3438C20.2489 14.1197 20.3379 13.9048 20.4964 13.7464L22.4319 11.8125L20.4964 9.87862C20.4178 9.80025 20.3555 9.70714 20.3129 9.60463C20.2704 9.50212 20.2485 9.39223 20.2485 9.28125C20.2485 9.17027 20.2704 9.06038 20.3129 8.95787C20.3555 8.85536 20.4178 8.76225 20.4964 8.68388Z" fill="white" fill-opacity="0.6"/>
</svg>
