<svg width="42" height="41" viewBox="0 0 42 41" fill="none" xmlns="http://www.w3.org/2000/svg">
<path d="M20.5186 0C16.464 0 12.5006 1.2023 9.12937 3.45487C5.75816 5.70744 3.13063 8.9091 1.57903 12.655C0.027437 16.4009 -0.378531 20.5227 0.412466 24.4993C1.20346 28.476 3.1559 32.1287 6.02287 34.9957C8.88985 37.8627 12.5426 39.8151 16.5192 40.6061C20.4958 41.3971 24.6177 40.9911 28.3636 39.4395C32.1095 37.8879 35.3111 35.2604 37.5637 31.8892C39.8163 28.518 41.0186 24.5545 41.0186 20.5C41.0125 15.0649 38.8508 9.85416 35.0076 6.01097C31.1644 2.16778 25.9536 0.00602894 20.5186 0ZM20.5186 36.4444C17.365 36.4444 14.2824 35.5093 11.6603 33.7573C9.03825 32.0053 6.99461 29.5151 5.78782 26.6017C4.58102 23.6882 4.26527 20.4823 4.88049 17.3894C5.49571 14.2965 7.01427 11.4554 9.24414 9.22557C11.474 6.9957 14.315 5.47714 17.408 4.86192C20.5009 4.2467 23.7068 4.56246 26.6202 5.76925C29.5337 6.97605 32.0239 9.01969 33.7759 11.6417C35.5279 14.2638 36.463 17.3465 36.463 20.5C36.4585 24.7273 34.7772 28.7802 31.788 31.7694C28.7988 34.7586 24.7459 36.4399 20.5186 36.4444ZM33.1583 20.4317C33.0174 20.6955 32.8258 20.929 32.5946 21.1189C32.3634 21.3087 32.0971 21.4512 31.8109 21.538C31.5246 21.6249 31.224 21.6546 30.9263 21.6253C30.6286 21.5961 30.3396 21.5084 30.0757 21.3675C27.1359 19.794 23.853 18.9707 20.5186 18.9707C17.1841 18.9707 13.9012 19.794 10.9614 21.3675C10.6322 21.5462 10.2635 21.6395 9.88893 21.6389C9.38128 21.6388 8.88821 21.4691 8.48801 21.1568C8.0878 20.8444 7.80341 20.4074 7.67998 19.9149C7.55655 19.4225 7.60115 18.903 7.80671 18.4388C8.01227 17.9746 8.367 17.5924 8.81458 17.3529C12.414 15.4257 16.4337 14.4173 20.5167 14.4173C24.5996 14.4173 28.6193 15.4257 32.2187 17.3529C32.7513 17.6369 33.1494 18.1206 33.3255 18.6979C33.5017 19.2751 33.4416 19.8987 33.1583 20.4317ZM30.1213 27.265C29.9815 27.5297 29.7909 27.7643 29.5603 27.9554C29.3298 28.1464 29.0638 28.2901 28.7777 28.3782C28.4916 28.4664 28.1909 28.4972 27.8928 28.4691C27.5947 28.4409 27.3051 28.3542 27.0406 28.2141C25.0334 27.1433 22.7935 26.5832 20.5186 26.5832C18.2436 26.5832 16.0037 27.1433 13.9965 28.2141C13.4646 28.4858 12.8471 28.5377 12.2773 28.3585C11.7075 28.1794 11.2308 27.7835 10.95 27.2563C10.6692 26.7291 10.6068 26.1126 10.7761 25.5398C10.9455 24.967 11.3331 24.4836 11.8554 24.1938C14.5217 22.7721 17.4969 22.0284 20.5186 22.0284C23.5402 22.0284 26.5154 22.7721 29.1817 24.1938C29.7122 24.4778 30.1089 24.9602 30.2849 25.5356C30.4609 26.1111 30.4021 26.7328 30.1213 27.265Z" fill="black"/>
</svg>
