<svg width="23" height="23" viewBox="0 0 23 23" fill="none" xmlns="http://www.w3.org/2000/svg">
<path d="M20.5154 18.9296L16.2887 14.7029C17.3063 13.3483 17.8556 11.6993 17.8538 10.005C17.8538 5.67723 14.3328 2.15625 10.005 2.15625C5.67723 2.15625 2.15625 5.67723 2.15625 10.005C2.15625 14.3328 5.67723 17.8538 10.005 17.8538C11.6993 17.8556 13.3483 17.3063 14.7029 16.2887L18.9296 20.5154C19.1436 20.7066 19.4226 20.8087 19.7095 20.8007C19.9964 20.7927 20.2693 20.6751 20.4722 20.4722C20.6751 20.2693 20.7927 19.9964 20.8007 19.7095C20.8087 19.4226 20.7066 19.1436 20.5154 18.9296ZM4.39875 10.005C4.39875 8.89619 4.72755 7.81228 5.34357 6.89033C5.9596 5.96839 6.83517 5.24982 7.85958 4.8255C8.88399 4.40118 10.0112 4.29015 11.0987 4.50647C12.1862 4.72279 13.1852 5.25673 13.9692 6.04078C14.7533 6.82483 15.2872 7.82377 15.5035 8.91127C15.7198 9.99878 15.6088 11.126 15.1845 12.1504C14.7602 13.1748 14.0416 14.0504 13.1197 14.6664C12.1977 15.2824 11.1138 15.6112 10.005 15.6112C8.51868 15.6095 7.09374 15.0182 6.04275 13.9672C4.99176 12.9163 4.40053 11.4913 4.39875 10.005Z" fill="#6E7579"/>
</svg>
