<svg width="18" height="19" viewBox="0 0 18 19" fill="none" xmlns="http://www.w3.org/2000/svg">
<path d="M12.5777 15.5902C14.2474 15.5902 15.6773 14.6222 16.3242 13.2408C15.6773 11.8595 14.2474 10.8914 12.5777 10.8914M12.5777 15.5902C13.2008 15.5902 13.7984 15.3427 14.239 14.9021C14.6796 14.4615 14.9271 13.8639 14.9271 13.2408C14.9271 12.6177 14.6796 12.0202 14.239 11.5796C13.7984 11.139 13.2008 10.8914 12.5777 10.8914M12.5777 15.5902C10.9081 15.5902 9.47824 14.6222 8.83133 13.2408C9.47824 11.8595 10.9081 10.8914 12.5777 10.8914M12.5777 15.5902C11.9546 15.5902 11.3571 15.3427 10.9165 14.9021C10.4759 14.4615 10.2284 13.8639 10.2284 13.2408C10.2284 12.6177 10.4759 12.0202 10.9165 11.5796C11.3571 11.139 11.9546 10.8914 12.5777 10.8914M5.16811 5.28903C5.16811 3.99087 6.21935 2.93963 7.51751 2.93963C8.81567 2.93963 9.86691 3.99087 9.86691 5.28903C9.86691 6.58719 8.81567 7.63842 7.51751 7.63842C6.21935 7.63842 5.16811 6.58719 5.16811 5.28903ZM12.397 13.2408C12.397 13.1354 12.4724 13.0601 12.5777 13.0601C12.6831 13.0601 12.7585 13.1354 12.7585 13.2408C12.7585 13.3462 12.6831 13.4216 12.5777 13.4216C12.4724 13.4216 12.397 13.3462 12.397 13.2408Z" stroke="#0C2C40" stroke-width="1.08434"/>
<path d="M8.24063 11.3214V9.81052C7.38587 9.58983 6.49193 9.56702 5.62732 9.74524C4.7627 9.92347 3.95036 10.2973 3.25255 10.838C2.55475 11.3787 1.98999 12.072 1.60158 12.8648C1.21316 13.6575 1.01138 14.5287 1.01172 15.4115H2.4575C2.45737 14.7175 2.62375 14.0337 2.94268 13.4173C3.26161 12.801 3.72376 12.2702 4.29034 11.8695C4.85692 11.4688 5.51138 11.2098 6.19876 11.1145C6.88613 11.0191 7.58636 11.09 8.24063 11.3214Z" fill="#0C2C40"/>
</svg>
