<svg width="124" height="124" viewBox="0 0 124 124" fill="none" xmlns="http://www.w3.org/2000/svg">
<path d="M72.5867 28.6237C73.6325 28.3834 74.7272 28.4746 75.7188 28.8847C76.7104 29.2949 77.5497 30.0036 78.1202 30.9126L83.2558 39.1121C83.6699 39.7725 84.2281 40.3306 84.8885 40.7447L93.088 45.8804C93.9988 46.4504 94.7093 47.2903 95.1204 48.283C95.5316 49.2757 95.623 50.3719 95.382 51.4191L93.212 60.8431C93.037 61.6047 93.037 62.3961 93.212 63.1577L95.382 72.5869C95.6207 73.6325 95.5281 74.7265 95.1171 75.7171C94.706 76.7077 93.9969 77.5458 93.088 78.1152L84.8885 83.2561C84.2281 83.6702 83.6699 84.2283 83.2558 84.8887L78.1202 93.0882C77.5504 93.9981 76.7115 94.7079 75.7198 95.119C74.7281 95.5301 73.633 95.6221 72.5867 95.3822L63.1575 93.2122C62.3975 93.038 61.608 93.038 60.848 93.2122L51.4188 95.3822C50.3725 95.6221 49.2774 95.5301 48.2857 95.119C47.294 94.7079 46.4551 93.9981 45.8853 93.0882L40.7497 84.8887C40.3341 84.2277 39.7741 83.6695 39.1118 83.2561L30.9175 78.1204C30.0077 77.5507 29.2979 76.7117 28.8867 75.72C28.4756 74.7283 28.3836 73.6333 28.6235 72.5869L30.7883 63.1577C30.9634 62.3961 30.9634 61.6047 30.7883 60.8431L28.6183 51.4191C28.3778 50.3714 28.47 49.2748 28.8821 48.282C29.2942 47.2892 30.0057 46.4497 30.9175 45.8804L39.1118 40.7447C39.7741 40.3312 40.3341 39.773 40.7497 39.1121L45.8853 30.9126C46.4555 30.0046 47.2939 29.2965 48.2845 28.8864C49.275 28.4763 50.3686 28.3845 51.4137 28.6237L60.848 30.7886C61.608 30.9628 62.3975 30.9628 63.1575 30.7886L72.5867 28.6237Z" stroke="#5C6BEF" stroke-width="5.16667"/>
<path d="M49.1611 64.7701L59.6753 74.84L74.8395 49.1616" stroke="#5C6BEF" stroke-width="5.16667" stroke-linecap="round" stroke-linejoin="round"/>
</svg>
