<svg width="30" height="30" viewBox="0 0 30 30" fill="none" xmlns="http://www.w3.org/2000/svg">
<path d="M17.945 3.24362C17.9714 3.21045 18.0042 3.18298 18.0415 3.1629C18.0788 3.14281 18.1198 3.13053 18.162 3.12679C18.2043 3.12305 18.2468 3.12793 18.287 3.14113C18.3273 3.15434 18.3645 3.1756 18.3962 3.20362L19.5487 4.21862L15.9237 8.74987H18.3238L20.9562 5.45987L23.0212 7.28112C23.0823 7.33507 23.1199 7.41075 23.126 7.49201C23.132 7.57327 23.1061 7.65369 23.0538 7.71612L22.1912 8.74987H24.6213C24.9223 8.30921 25.0518 7.77373 24.9855 7.24422C24.9192 6.71471 24.6616 6.2277 24.2612 5.87487L19.6362 1.79612C19.4131 1.59962 19.1523 1.45067 18.8697 1.35836C18.5871 1.26605 18.2886 1.23231 17.9925 1.25922C17.6964 1.28613 17.4089 1.37311 17.1476 1.51485C16.8863 1.65659 16.6565 1.85012 16.4725 2.08362L11.22 8.74987H13.6075L17.945 3.24362ZM6.5625 8.12487C6.31386 8.12487 6.0754 8.22364 5.89959 8.39945C5.72377 8.57527 5.625 8.81373 5.625 9.06237C5.625 9.31101 5.72377 9.54947 5.89959 9.72528C6.0754 9.9011 6.31386 9.99987 6.5625 9.99987H22.8125C23.8899 9.99987 24.9233 10.4279 25.6851 11.1897C26.447 11.9516 26.875 12.9849 26.875 14.0624V22.1874C26.875 23.2648 26.447 24.2981 25.6851 25.06C24.9233 25.8219 23.8899 26.2499 22.8125 26.2499H7.8125C6.73506 26.2499 5.70175 25.8219 4.93988 25.06C4.17801 24.2981 3.75 23.2648 3.75 22.1874V9.06237C3.75 8.31645 4.04632 7.60108 4.57376 7.07363C5.10121 6.54618 5.81658 6.24987 6.5625 6.24987H11.9625L10.4725 8.12487H6.5625ZM19.375 18.4374C19.375 18.9549 19.795 19.3749 20.3125 19.3749H22.8125C23.0611 19.3749 23.2996 19.2761 23.4754 19.1003C23.6512 18.9245 23.75 18.686 23.75 18.4374C23.75 18.1887 23.6512 17.9503 23.4754 17.7745C23.2996 17.5986 23.0611 17.4999 22.8125 17.4999H20.3125C20.0639 17.4999 19.8254 17.5986 19.6496 17.7745C19.4738 17.9503 19.375 18.1887 19.375 18.4374Z" fill="#0C2C40"/>
</svg>
